<?xml version="1.0" standalone="no"?>
<!DOCTYPE svg PUBLIC "-//W3C//DTD SVG 20010904//EN"
 "http://www.w3.org/TR/2001/REC-SVG-20010904/DTD/svg10.dtd">
<svg version="1.0" xmlns="http://www.w3.org/2000/svg"
 width="512.000000pt" height="512.000000pt" viewBox="0 0 512.000000 512.000000"
 preserveAspectRatio="xMidYMid meet">
<metadata>
Created by potrace 1.14, written by Peter Selinger 2001-2017
</metadata>
<g transform="translate(0.000000,512.000000) scale(0.100000,-0.100000)"
fill="#000000" stroke="none">
<path d="M1220 3829 l110 -122 0 -1146 0 -1146 -86 -95 c-48 -52 -98 -107
-112 -123 l-26 -27 951 0 950 0 87 278 c47 152 102 326 120 385 l34 108 -66
-61 c-37 -33 -211 -199 -387 -369 l-320 -310 -307 -1 -308 0 0 1256 0 1257 78
84 c42 46 90 100 105 119 l29 34 -481 0 -482 0 111 -121z"/>
<path d="M3665 1936 c-113 -37 -202 -113 -252 -213 -25 -52 -28 -68 -28 -159
0 -96 2 -103 38 -176 43 -87 98 -142 186 -185 51 -25 66 -28 166 -28 101 0
115 2 168 28 296 146 294 571 -3 711 -54 26 -79 31 -150 33 -50 2 -102 -3
-125 -11z"/>
</g>
</svg>
